<?xml version="1.0" encoding="UTF-8" standalone="no"?>
<!-- Generator: Adobe Illustrator 27.5.0, SVG Export Plug-In . SVG Version: 6.00 Build 0)  -->

<svg
   version="1.1"
   x="0px"
   y="0px"
   viewBox="0 0 750 500"
   style="enable-background:new 0 0 750 500;"
   xml:space="preserve"
   id="svg1417"
   sodipodi:docname="consultoria.svg"
   inkscape:version="1.2.1 (9c6d41e410, 2022-07-14)"
   xmlns:inkscape="http://www.inkscape.org/namespaces/inkscape"
   xmlns:sodipodi="http://sodipodi.sourceforge.net/DTD/sodipodi-0.dtd"
   xmlns="http://www.w3.org/2000/svg"
   xmlns:svg="http://www.w3.org/2000/svg"><defs
   id="defs1421" /><sodipodi:namedview
   id="namedview1419"
   pagecolor="#505050"
   bordercolor="#eeeeee"
   borderopacity="1"
   inkscape:showpageshadow="0"
   inkscape:pageopacity="0"
   inkscape:pagecheckerboard="0"
   inkscape:deskcolor="#505050"
   showgrid="false"
   inkscape:zoom="1.1370277"
   inkscape:cx="494.7109"
   inkscape:cy="236.142"
   inkscape:window-width="1920"
   inkscape:window-height="991"
   inkscape:window-x="-9"
   inkscape:window-y="-9"
   inkscape:window-maximized="1"
   inkscape:current-layer="g68" />
<g
   id="Background_Complete">
	<g
   id="g68">
		
		<g
   id="g54">
			<g
   id="g52">
				<g
   id="g50">
					<g
   id="g48">
						<g
   id="g46">
							<path
   style="fill-rule:evenodd;clip-rule:evenodd;fill:#EBEBEB;"
   d="M663.723,117.845c-1.385,1.91-3.005,3.6-4.802,5.044         l1.25,6.335l-9.766,4.332l-3.858-5.178c-2.276,0.364-4.617,0.431-6.963,0.176l-3.594,5.362l-9.968-3.843l0.933-6.387         c-1.911-1.384-3.601-3.006-5.044-4.804l-6.336,1.25l-4.332-9.765l5.178-3.859c-0.364-2.277-0.43-4.616-0.174-6.963         l-5.362-3.594l3.842-9.97l6.387,0.934c1.384-1.911,3.005-3.6,4.803-5.044l-1.25-6.336l9.766-4.332l3.858,5.179         c2.276-0.364,4.616-0.43,6.963-0.176l3.594-5.361l9.969,3.842l-0.933,6.387c1.911,1.384,3.601,3.006,5.044,4.804l6.336-1.25         l4.332,9.765l-5.179,3.859c0.364,2.277,0.43,4.616,0.175,6.963l5.361,3.594l-3.842,9.968L663.723,117.845L663.723,117.845z          M652.937,106.954c2.276-5.906-0.666-12.54-6.573-14.816c-5.906-2.276-12.539,0.667-14.816,6.573         c-2.276,5.907,0.666,12.54,6.573,14.816C644.028,115.803,650.66,112.861,652.937,106.954z"
   id="path44" />
						</g>
					</g>
				</g>
			</g>
		</g>
		<g
   id="g66">
			<g
   id="g64">
				<g
   id="g62">
					<g
   id="g60">
						<g
   id="g58">
							<path
   style="fill-rule:evenodd;clip-rule:evenodd;fill:#EBEBEB;"
   d="M651.662,215.579c-2.223,3.065-4.823,5.777-7.708,8.095         l2.006,10.168l-15.675,6.953l-6.192-8.311c-3.654,0.584-7.41,0.692-11.176,0.282l-5.769,8.606l-16-6.169l1.497-10.251         c-3.067-2.222-5.779-4.824-8.096-7.71l-10.169,2.006l-6.953-15.673l8.311-6.193c-0.583-3.654-0.69-7.409-0.28-11.176         l-8.606-5.768l6.166-16.002l10.252,1.499c2.222-3.067,4.823-5.778,7.709-8.096l-2.006-10.17l15.675-6.953l6.192,8.313         c3.654-0.584,7.409-0.69,11.175-0.282l5.769-8.604l16.001,6.166l-1.498,10.251c3.067,2.222,5.78,4.824,8.096,7.71         l10.169-2.006l6.953,15.673l-8.312,6.193c0.584,3.654,0.691,7.409,0.281,11.176l8.605,5.768l-6.166,15.999L651.662,215.579         L651.662,215.579z M634.35,198.099c3.653-9.479-1.069-20.126-10.549-23.78c-9.479-3.653-20.126,1.071-23.779,10.549         c-3.654,9.48,1.069,20.126,10.549,23.78C620.051,212.301,630.697,207.579,634.35,198.099z"
   id="path56" />
						</g>
					</g>
				</g>
			</g>
		</g>
	</g>
	<g
   id="g94">
		<g
   id="g84">
			<g
   id="g72">
				<path
   style="fill:#F5F5F5;"
   d="M217.097,74.368c2.927,20.147-11.07,38.859-31.262,41.794      c-20.194,2.935-38.938-11.018-41.865-31.166c-2.928-20.147,11.068-38.858,31.262-41.792      C195.425,40.268,214.169,54.222,217.097,74.368z"
   id="path70" />
			</g>
			<g
   id="g76">
				<path
   style="fill:#EBEBEB;"
   d="M208.397,75.633c2.231,15.352-8.435,29.612-23.825,31.848      c-15.388,2.237-29.672-8.397-31.903-23.749c-2.23-15.354,8.436-29.613,23.824-31.849      C191.881,49.647,206.165,60.28,208.397,75.633z"
   id="path74" />
			</g>
			<g
   id="g82">
				<g
   id="g80">
					<path
   style="fill:#E0E0E0;"
   d="M208.263,74.76c-0.168,0.031-0.465-1.175-1.223-3.244c-0.767-2.055-2.057-5-4.455-8.073       c-1.197-1.529-2.663-3.084-4.425-4.527c-1.772-1.426-3.822-2.761-6.152-3.803c-1.162-0.525-2.385-0.994-3.669-1.356       c-1.281-0.369-2.611-0.674-3.986-0.847c-1.372-0.177-2.781-0.283-4.211-0.246c-1.43,0.034-2.876,0.172-4.325,0.419       c-1.446,0.267-2.853,0.636-4.206,1.095c-1.356,0.458-2.643,1.042-3.871,1.68c-1.232,0.637-2.376,1.381-3.451,2.168       c-1.08,0.782-2.067,1.645-2.977,2.537c-1.829,1.781-3.295,3.741-4.466,5.689c-1.157,1.961-1.998,3.925-2.596,5.774       c-1.192,3.71-1.388,6.918-1.401,9.111c0.001,2.203,0.138,3.437-0.031,3.465c-0.124,0.025-0.544-1.163-0.807-3.421       c-0.247-2.243-0.291-5.609,0.775-9.584c0.535-1.98,1.341-4.1,2.505-6.228c1.178-2.116,2.689-4.254,4.612-6.206       c0.957-0.978,2-1.923,3.15-2.782c1.145-0.865,2.369-1.681,3.689-2.382c1.317-0.703,2.703-1.342,4.164-1.844       c1.459-0.505,2.977-0.905,4.535-1.192c1.562-0.267,3.124-0.413,4.667-0.441c1.544-0.031,3.065,0.093,4.544,0.299       c1.48,0.203,2.911,0.548,4.283,0.967c1.375,0.411,2.681,0.939,3.916,1.527c2.476,1.171,4.632,2.657,6.468,4.239       c1.823,1.598,3.312,3.311,4.497,4.985c2.37,3.366,3.489,6.54,4.03,8.731C208.374,73.48,208.388,74.74,208.263,74.76z"
   id="path78" />
				</g>
			</g>
		</g>
		<g
   id="g92">
			<g
   id="g90">
				<g
   id="g88">
					<path
   style="fill:#E0E0E0;"
   d="M186.1,95.844l0.776,4.843l-4.324,0.691l-0.754-4.712c-4.322,0.425-8.644-0.256-11.32-1.735       l1.532-5.656c2.419,1.254,5.718,1.923,8.881,1.727l-1.157-7.222c-4.986-0.398-10.604-1.139-11.594-7.323       c-0.733-4.584,1.966-9.051,8.672-10.923l-0.768-4.8l4.324-0.693l0.755,4.714c3.285-0.26,6.579,0.099,9.199,1.231l-1.309,5.665       c-2.406-0.9-4.772-1.276-6.977-1.19l1.178,7.352c4.979,0.355,10.511,1.111,11.487,7.207       C195.421,89.518,192.757,93.936,186.1,95.844z M178.717,77.424l-0.984-6.139c-2.208,0.885-2.915,2.285-2.687,3.712       C175.288,76.509,176.717,77.124,178.717,77.424z M187.823,86.654c-0.243-1.514-1.628-2.134-3.592-2.487l0.955,5.968       C187.273,89.314,188.044,88.038,187.823,86.654z"
   id="path86" />
				</g>
			</g>
		</g>
	</g>
	<g
   id="g120">
		<g
   id="g110">
			<g
   id="g98">
				<path
   style="fill:#F5F5F5;"
   d="M205.671,204.774c5.081,34.974-19.215,67.454-54.268,72.549      c-35.054,5.094-67.591-19.127-72.673-54.101c-5.083-34.973,19.213-67.453,54.267-72.547      C168.051,145.581,200.589,169.802,205.671,204.774z"
   id="path96" />
			</g>
			<g
   id="g102">
				<path
   style="fill:#EBEBEB;"
   d="M190.569,206.97c3.873,26.65-14.642,51.403-41.357,55.285      c-26.711,3.882-51.507-14.576-55.38-41.226c-3.872-26.652,14.643-51.405,41.355-55.287      C161.9,161.861,186.695,180.318,190.569,206.97z"
   id="path100" />
			</g>
			<g
   id="g108">
				<g
   id="g106">
					<path
   style="fill:#E0E0E0;"
   d="M190.337,205.455c-0.292,0.053-0.806-2.04-2.124-5.631c-1.332-3.567-3.57-8.68-7.734-14.014       c-2.078-2.655-4.622-5.353-7.681-7.859c-3.076-2.475-6.635-4.793-10.68-6.602c-2.017-0.911-4.14-1.726-6.368-2.355       c-2.223-0.64-4.533-1.17-6.919-1.47c-2.381-0.308-4.827-0.491-7.31-0.427c-2.482,0.059-4.993,0.298-7.508,0.727       c-2.51,0.464-4.952,1.103-7.301,1.9c-2.354,0.796-4.588,1.808-6.719,2.917c-2.138,1.105-4.124,2.397-5.991,3.763       c-1.876,1.357-3.588,2.855-5.168,4.403c-3.174,3.091-5.719,6.494-7.752,9.876c-2.008,3.404-3.468,6.813-4.506,10.023       c-2.07,6.44-2.41,12.009-2.432,15.816c0.001,3.824,0.239,5.967-0.054,6.016c-0.215,0.043-0.944-2.02-1.401-5.938       c-0.43-3.894-0.505-9.736,1.346-16.637c0.929-3.437,2.328-7.117,4.348-10.812c2.045-3.674,4.668-7.385,8.007-10.773       c1.661-1.697,3.472-3.338,5.468-4.83c1.987-1.501,4.112-2.919,6.403-4.134c2.287-1.22,4.692-2.33,7.228-3.202       c2.532-0.876,5.168-1.571,7.872-2.069c2.712-0.464,5.423-0.716,8.101-0.766c2.681-0.054,5.321,0.161,7.887,0.519       c2.57,0.351,5.053,0.952,7.434,1.678c2.387,0.713,4.655,1.63,6.798,2.651c4.299,2.032,8.041,4.612,11.227,7.358       c3.165,2.773,5.75,5.747,7.806,8.654c4.115,5.842,6.056,11.352,6.996,15.156C190.529,203.232,190.553,205.42,190.337,205.455z"
   id="path104" />
				</g>
			</g>
		</g>
		<g
   id="g118">
			<g
   id="g116">
				<g
   id="g114">
					<path
   style="fill:#E0E0E0;"
   d="M151.865,242.053l1.347,8.408l-7.506,1.2l-1.31-8.18c-7.503,0.738-15.006-0.445-19.65-3.012       l2.66-9.819c4.199,2.178,9.926,3.338,15.416,2.998l-2.008-12.536c-8.656-0.69-18.407-1.977-20.125-12.712       c-1.273-7.957,3.412-15.711,15.054-18.96l-1.334-8.333l7.507-1.202l1.31,8.183c5.701-0.451,11.42,0.172,15.969,2.138       l-2.273,9.835c-4.177-1.563-8.284-2.215-12.11-2.066l2.044,12.762c8.643,0.616,18.246,1.929,19.94,12.511       C168.044,231.072,163.421,238.741,151.865,242.053z M139.048,210.078l-1.709-10.657c-3.833,1.537-5.06,3.967-4.664,6.444       C133.097,208.49,135.577,209.558,139.048,210.078z M154.856,226.102c-0.422-2.629-2.826-3.704-6.235-4.316l1.658,10.359       C153.901,230.719,155.24,228.503,154.856,226.102z"
   id="path112" />
				</g>
			</g>
		</g>
	</g>
	<g
   id="g146">
		<g
   id="g136">
			<g
   id="g124">
				<path
   style="fill:#F5F5F5;"
   d="M65.746,140.583c-12.919-10.549-14.822-29.598-4.25-42.547      c10.573-12.95,29.617-14.896,42.537-4.347c12.92,10.548,14.822,29.597,4.249,42.546      C97.71,149.184,78.666,151.131,65.746,140.583z"
   id="path122" />
			</g>
			<g
   id="g128">
				<path
   style="fill:#EBEBEB;"
   d="M70.301,135.003c-9.845-8.038-11.295-22.554-3.238-32.424c8.056-9.868,22.57-11.351,32.415-3.313      c9.845,8.039,11.295,22.556,3.239,32.424C94.66,141.558,80.147,143.042,70.301,135.003z"
   id="path126" />
			</g>
			<g
   id="g134">
				<g
   id="g132">
					<path
   style="fill:#E0E0E0;"
   d="M70.864,135.456c0.085-0.112,0.931,0.452,2.535,1.282c1.601,0.816,4.01,1.882,7.159,2.41       c1.569,0.261,3.315,0.389,5.178,0.285c1.86-0.12,3.837-0.448,5.821-1.108c0.992-0.326,1.991-0.72,2.967-1.211       c0.978-0.486,1.95-1.038,2.876-1.695c0.927-0.652,1.836-1.368,2.68-2.182c0.845-0.812,1.642-1.696,2.381-2.647       c0.725-0.961,1.371-1.963,1.935-2.989c0.566-1.028,1.02-2.092,1.408-3.157c0.392-1.066,0.671-2.149,0.885-3.22       c0.22-1.07,0.338-2.137,0.394-3.18c0.119-2.088-0.08-4.083-0.451-5.908c-0.387-1.825-0.966-3.476-1.628-4.924       c-1.333-2.901-2.991-4.947-4.197-6.279c-1.22-1.33-1.986-2-1.899-2.111c0.061-0.083,0.972,0.402,2.381,1.619       c1.391,1.218,3.28,3.227,4.836,6.218c0.773,1.492,1.459,3.219,1.934,5.148c0.46,1.93,0.73,4.058,0.649,6.301       c-0.037,1.12-0.144,2.269-0.363,3.424c-0.213,1.156-0.5,2.327-0.91,3.48c-0.407,1.154-0.89,2.307-1.494,3.419       c-0.602,1.112-1.297,2.194-2.08,3.23c-0.796,1.026-1.659,1.979-2.575,2.85c-0.916,0.874-1.903,1.64-2.91,2.334       c-1.006,0.697-2.062,1.28-3.122,1.786c-1.058,0.513-2.139,0.917-3.211,1.245c-2.144,0.663-4.269,0.959-6.253,1.02       c-1.986,0.044-3.833-0.166-5.475-0.523c-3.295-0.721-5.727-2.019-7.267-3.043C71.507,136.291,70.801,135.538,70.864,135.456z"
   id="path130" />
				</g>
			</g>
		</g>
		<g
   id="g144">
			<g
   id="g142">
				<g
   id="g140">
					<path
   style="fill:#E0E0E0;"
   d="M72.582,110.455l-3.149-2.496l2.229-2.811l3.064,2.429c2.375-2.649,5.363-4.63,7.798-5.217       l2.205,4.265c-2.155,0.581-4.518,2.004-6.32,3.872l4.696,3.722c3.232-2.52,7.036-5.181,11.056-1.994       c2.98,2.363,3.822,6.555,0.807,11.397l3.121,2.474l-2.229,2.812l-3.065-2.43c-1.84,1.975-4.028,3.581-6.238,4.348l-2.345-4.147       c1.952-0.788,3.589-1.871,4.873-3.142l-4.78-3.789c-3.204,2.542-6.964,5.146-10.927,2.005       C70.454,119.435,69.617,115.292,72.582,110.455z M87.237,117.494l3.992,3.164c0.844-1.757,0.496-2.994-0.432-3.73       C89.814,116.149,88.61,116.568,87.237,117.494z M76.627,116.959c0.985,0.78,2.164,0.388,3.546-0.486l-3.88-3.076       C75.487,115.048,75.728,116.246,76.627,116.959z"
   id="path138" />
				</g>
			</g>
		</g>
	</g>
</g>
<g
   id="Background_Simple"
   style="display:none;">
	<path
   style="display:inline;fill:#EBEBEB;"
   d="M600.174,112.775l-2.636-4.865c-22.221-41.014-64.748-67.164-110.966-66.506   c-5.941,0.085-11.878,0.598-17.757,1.558c-42.331,6.917-80.333,36.812-97.427,76.645c-10.054,23.426-13.881,50.778-31.67,68.892   c-23.152,23.575-60.448,22.525-93.155,19.901c-32.707-2.625-70.033-3.578-93.083,20.099   c-14.436,14.829-19.861,36.655-19.774,57.465c0.23,55.093,36.116,106.101,83.616,132.907   c47.5,26.805,104.727,31.799,158.547,23.664c75.396-11.396,148.419-49.251,194.22-110.999   C615.89,269.788,630.948,183.346,600.174,112.775z"
   id="path149" />
</g>
<g
   id="Floor">
	<g
   id="g154">
		<path
   style="fill:#263238;"
   d="M686.465,453.34c0,0.144-141.698,0.26-316.45,0.26c-174.813,0-316.48-0.117-316.48-0.26    s141.667-0.26,316.48-0.26C544.768,453.079,686.465,453.196,686.465,453.34z"
   id="path152" />
	</g>
</g>
<g
   id="Plants">
	
	
</g>
<g
   id="Device">
	<g
   id="g822">
		<g
   id="g820">
			<g
   id="g818">
				<g
   id="g808">
					<g
   id="g780">
						<g
   id="g770">
							<g
   id="g756">
								<g
   id="g754">
									<g
   id="g752">
										<g
   id="g750">
											<g
   id="g748">
												<path
   style="fill:#455A64;"
   d="M587.027,93.273H179.749c-7.022,0-12.713,5.692-12.713,12.713v287.67              c0,7.022,5.691,12.714,12.713,12.714h156.313c0,0,9.943,30.747-20.88,46.656h146.16c0,0-34.801-11.931-25.853-46.656              h151.54c7.02,0,12.713-5.692,12.713-12.713v-287.67C599.741,98.964,594.048,93.273,587.027,93.273z"
   id="path746" />
											</g>
										</g>
									</g>
								</g>
							</g>
							<g
   id="g768">
								<g
   id="g766">
									<g
   id="g764">
										<g
   id="g762">
											<g
   id="g760">
												<path
   style="fill:#263238;"
   d="M388.826,376.115c5.54,7.918-3.13,16.589-11.051,11.05              c-0.26-0.184-0.498-0.421-0.681-0.682c-5.525-7.916,3.135-16.576,11.05-11.049              C388.406,375.616,388.643,375.853,388.826,376.115z"
   id="path758" />
											</g>
										</g>
									</g>
								</g>
							</g>
						</g>
						<g
   id="g778">
							<g
   id="g776">
								<g
   id="g774">
									<path
   style="fill:#FFFFFF;"
   d="M592.403,353.782h-418.68V108.281c0-5.356,4.342-9.697,9.697-9.697h399.285           c5.356,0,9.697,4.342,9.697,9.697V353.782z"
   id="path772" />
								</g>
							</g>
						</g>
					</g>
					<g
   id="g786">
						<g
   id="g784">
							<path
   style="fill:#EBEBEB;"
   d="M592.403,119.748H174.048v-12.052c0-5.055,4.098-9.154,9.154-9.154h401.686         c4.151,0,7.516,3.365,7.516,7.516V119.748z"
   id="path782" />
						</g>
					</g>
					<g
   id="g806">
						<g
   id="g792">
							<g
   id="g790">
								<path
   style="fill:#263238;"
   d="M190.322,109.59c0,1.624-1.317,2.941-2.941,2.941c-1.624,0-2.941-1.317-2.941-2.941          c0-1.624,1.317-2.941,2.941-2.941C189.005,106.649,190.322,107.966,190.322,109.59z"
   id="path788" />
							</g>
						</g>
						<g
   id="g798">
							<g
   id="g796">
								<path
   style="fill:#263238;"
   d="M199.09,109.59c0,1.624-1.317,2.941-2.941,2.941s-2.941-1.317-2.941-2.941          c0-1.624,1.317-2.941,2.941-2.941S199.09,107.966,199.09,109.59z"
   id="path794" />
							</g>
						</g>
						<g
   id="g804">
							<g
   id="g802">
								<path
   style="fill:#263238;"
   d="M207.428,109.59c0,1.624-1.317,2.941-2.941,2.941c-1.624,0-2.941-1.317-2.941-2.941          c0-1.624,1.317-2.941,2.941-2.941C206.111,106.649,207.428,107.966,207.428,109.59z"
   id="path800" />
							</g>
						</g>
					</g>
				</g>
				<g
   id="g816">
					<g
   id="g814">
						<g
   id="g812">
							<path
   style="fill:#263238;"
   d="M514.212,406.409c0,0.135-57.956,0.245-129.432,0.245c-71.501,0-129.444-0.109-129.444-0.245         c0-0.135,57.944-0.244,129.444-0.244C456.256,406.165,514.212,406.274,514.212,406.409z"
   id="path810" />
						</g>
					</g>
				</g>
			</g>
		</g>
	</g>
	<g
   id="g916">
		<g
   id="g866">
			<g
   id="g828">
				<g
   id="g826">
					<path
   style="fill:#EBEBEB;"
   d="M543.135,262.957c4.837-2.496,10.534-2.82,15.904-1.933c2.885,0.477,5.893,1.34,7.857,3.507       c1.963,2.167,2.335,5.981,0.081,7.843c-1.342,1.109-3.214,1.277-4.954,1.257c-4.204-0.049-8.869-0.789-12.228,1.74       c-1.916,1.443-3.192,3.842-5.483,4.552c-2.241,0.694-4.771-0.628-5.959-2.651c-1.188-2.023-1.228-4.552-0.674-6.832       C537.678,270.442,538.262,265.472,543.135,262.957z"
   id="path824" />
				</g>
			</g>
			<g
   id="g834">
				<g
   id="g832">
					<path
   style="fill:#EBEBEB;"
   d="M532.052,241.562c2.958,4.225,8.707,2.826,11.373,0.247c2.666-2.579,3.792-6.316,4.818-9.88       c2.343-8.143,4.706-16.686,2.964-24.979c-0.521-2.479-1.448-4.952-3.19-6.791c-1.742-1.839-4.421-2.934-6.87-2.286       c-2.899,0.766-4.701,3.605-6.003,6.306c-3.828,7.939-5.854,16.74-5.884,25.553C529.245,233.848,529.73,238.164,532.052,241.562       "
   id="path830" />
				</g>
			</g>
			<g
   id="g840">
				<g
   id="g838">
					<path
   style="fill:#EBEBEB;"
   d="M523.929,247.624c3.212-3.812,3.821-9.371,2.392-14.146c-1.429-4.775-4.658-8.838-8.379-12.154       c-4.363-3.888-9.491-6.914-15.004-8.853c-2.17-0.763-4.458-1.365-6.748-1.146s-4.595,1.389-5.663,3.426       c-1.579,3.012-0.065,6.664,1.572,9.644c2.885,5.25,6.183,10.273,9.855,15.007c2.954,3.808,6.337,7.565,10.839,9.286       c4.502,1.721,9.178,1.518,11.564-1.604"
   id="path836" />
				</g>
			</g>
			<g
   id="g848">
				<g
   id="g846">
					<g
   id="g844">
						<path
   style="fill:#E0E0E0;"
   d="M531.851,305.293c0.055,0.003,0.145-0.681,0.268-1.92c0.136-1.397,0.307-3.152,0.51-5.239        c0.244-2.204,0.566-4.828,1.179-7.685c0.61-2.85,1.566-5.938,2.793-9.07c1.271-3.114,2.82-5.943,4.632-8.207        c1.798-2.273,3.889-3.919,5.855-4.868c1.959-0.968,3.717-1.361,4.931-1.535c1.225-0.126,1.911-0.222,1.911-0.277        c0-0.055-0.687-0.064-1.945-0.03c-1.246,0.083-3.077,0.399-5.142,1.338c-2.072,0.919-4.29,2.59-6.177,4.91        c-1.901,2.311-3.508,5.203-4.801,8.372c-1.249,3.187-2.19,6.307-2.773,9.218c-0.582,2.907-0.848,5.559-1.022,7.782        c-0.166,2.225-0.229,4.026-0.26,5.272C531.783,304.6,531.797,305.29,531.851,305.293z"
   id="path842" />
					</g>
				</g>
			</g>
			<g
   id="g856">
				<g
   id="g854">
					<g
   id="g852">
						<path
   style="fill:#E0E0E0;"
   d="M532.212,301.262c0.027-0.001,0.044-0.308,0.052-0.891c-0.002-0.669-0.004-1.512-0.007-2.547        c-0.006-2.211-0.005-5.41,0.113-9.36c0.196-7.901,0.876-16.404,2.19-28.392c1.244-11.272,2.914-24.391,4.677-32.92        c0.378-1.94,0.759-3.686,1.117-5.214c0.342-1.532,0.633-2.853,0.915-3.922c0.242-1.006,0.439-1.826,0.595-2.476        c0.128-0.569,0.182-0.871,0.156-0.879c-0.026-0.007-0.132,0.28-0.31,0.835c-0.194,0.641-0.439,1.449-0.739,2.441        c-0.328,1.059-0.664,2.371-1.048,3.897c-0.4,1.522-0.82,3.264-1.234,5.201c-1.744,7.728-3.59,18.53-4.917,30.547        c-1.317,12.013-1.91,22.951-1.962,30.872c-0.047,3.96,0.037,7.166,0.138,9.378c0.063,1.035,0.115,1.877,0.155,2.546        C532.149,300.958,532.185,301.263,532.212,301.262z"
   id="path850" />
					</g>
				</g>
			</g>
			<g
   id="g864">
				<g
   id="g862">
					<g
   id="g860">
						<path
   style="fill:#E0E0E0;"
   d="M532.265,280.165c0.055-0.002,0.045-0.947-0.019-2.661c-0.098-1.71-0.333-4.182-0.815-7.209        c-0.511-3.02-1.224-6.607-2.345-10.504c-0.486-1.782-1.627-6.05-4.392-12.429c-3.643-8.643-8.593-15.709-12.899-20.085        c-1.01-1.161-2.135-1.999-3.035-2.821c-0.466-0.394-0.877-0.786-1.296-1.097c-0.422-0.29-0.814-0.561-1.177-0.811        c-1.417-0.969-2.211-1.48-2.24-1.434c-0.127,0.173,3.174,2.116,7.343,6.551c4.152,4.426,8.963,11.443,12.577,20.013        c2.015,4.648,3.42,8.794,4.417,12.314c1.152,3.859,1.917,7.409,2.495,10.399c0.549,2.997,0.868,5.444,1.059,7.138        C532.097,279.226,532.211,280.167,532.265,280.165z"
   id="path858" />
					</g>
				</g>
			</g>
		</g>
		<g
   id="g872">
			<g
   id="g870">
				<polygon
   style="fill:#E0E0E0;"
   points="511.874,317.379 513.988,346.341 551.194,346.341 553.308,317.379     "
   id="polygon868" />
			</g>
		</g>
		<g
   id="g878">
			<g
   id="g876">
				<rect
   x="508.281"
   y="305.964"
   style="fill:#E0E0E0;"
   width="49.466"
   height="11.415"
   id="rect874" />
			</g>
		</g>
		<g
   id="g884">
			<g
   id="g882">
				<polygon
   style="fill:#EBEBEB;"
   points="508.281,345.232 508.281,348.397 510.605,348.397 556.93,348.397 556.93,345.232     "
   id="polygon880" />
			</g>
		</g>
		<g
   id="g890">
			<g
   id="g888">
				<polygon
   style="fill:#E0E0E0;"
   points="512.883,353.966 510.605,348.397 555.158,348.397 552.5,353.966     "
   id="polygon886" />
			</g>
		</g>
		<g
   id="g898">
			<g
   id="g896">
				<g
   id="g894">
					<path
   style="fill:#F5F5F5;"
   d="M552.617,326.844c0.008,0.007-0.051,0.097-0.174,0.266c-0.148,0.196-0.331,0.439-0.556,0.737       c-0.528,0.676-1.254,1.605-2.167,2.774l-0.096,0.123l-0.093-0.129c-1.362-1.884-3.182-4.401-5.325-7.365h0.306       c-1.584,2.243-3.348,4.741-5.242,7.423l-0.164,0.233l-0.184-0.219c-1.935-2.302-4.036-4.802-6.217-7.397l0.358-0.005       c-0.108,0.136-0.225,0.283-0.342,0.43c-1.928,2.417-3.794,4.757-5.559,6.969l-0.185,0.232l-0.171-0.242       c-1.887-2.671-3.651-5.166-5.245-7.421l0.305,0.014c-2.585,2.945-4.777,5.443-6.459,7.36l-0.115,0.131l-0.088-0.147       c-0.852-1.431-1.531-2.571-2.023-3.398c-0.212-0.369-0.383-0.667-0.519-0.905c-0.114-0.207-0.169-0.316-0.159-0.323       c0.01-0.006,0.083,0.092,0.217,0.287c0.151,0.229,0.34,0.516,0.574,0.871c0.517,0.812,1.229,1.932,2.123,3.336l-0.202-0.016       c1.656-1.94,3.813-4.468,6.356-7.449l0.16-0.188l0.145,0.203c1.609,2.246,3.388,4.729,5.292,7.388l-0.356-0.01       c1.761-2.216,3.622-4.559,5.546-6.98c0.117-0.147,0.234-0.294,0.342-0.43l0.177-0.222l0.182,0.217       c2.175,2.6,4.271,5.105,6.2,7.412l-0.348,0.014c1.913-2.669,3.695-5.154,5.295-7.386l0.155-0.216l0.151,0.216       c2.097,2.996,3.879,5.54,5.212,7.445l-0.189-0.006c0.95-1.139,1.705-2.044,2.255-2.703c0.245-0.283,0.443-0.513,0.604-0.699       C552.533,326.915,552.609,326.838,552.617,326.844z"
   id="path892" />
				</g>
			</g>
		</g>
		<g
   id="g906">
			<g
   id="g904">
				<g
   id="g902">
					<path
   style="fill:#F5F5F5;"
   d="M553.826,317.188c0,0.128-9.323,0.232-20.82,0.232c-11.501,0-20.822-0.104-20.822-0.232       s9.321-0.232,20.822-0.232C544.503,316.957,553.826,317.06,553.826,317.188z"
   id="path900" />
				</g>
			</g>
		</g>
		<g
   id="g914">
			<g
   id="g912">
				<g
   id="g910">
					<path
   style="fill:#F5F5F5;"
   d="M555.705,348.708c0,0.128-10.132,0.232-22.627,0.232c-12.5,0-22.629-0.104-22.629-0.232       c0-0.128,10.129-0.232,22.629-0.232C545.573,348.477,555.705,348.581,555.705,348.708z"
   id="path908" />
				</g>
			</g>
		</g>
	</g>
</g>
<g
   id="Character">
	<g
   id="g1387">
		<path
   style="fill:#263238;"
   d="M437.639,186.348c-1.061-17.75-2.799-35.458-5.209-53.074c-1.452-10.617-3.169-21.279-6.831-31.342    c-3.662-10.063-9.408-19.583-17.755-26.232c-8.348-6.649-19.505-10.138-29.898-7.828l42.214,130.281    c3.145,0.413,6.357,0.823,9.469,0.202c3.111-0.621,6.16-2.47,7.391-5.413C437.879,190.889,437.772,188.573,437.639,186.348z"
   id="path919" />
		<path
   style="fill:#263238;"
   d="M364.234,72.346c-8.09-0.625-17.904,2.47-22.5,9.203c-3.571,5.233-2.723,14.355-3.951,20.583    c-1.967,9.979-3.941,20.016-4.192,30.187c-0.276,11.178,1.533,22.289,3.337,33.322c1.994,12.195,3.987,24.39,5.981,36.585    c0.887,5.426,1.809,10.961,4.363,15.822c2.553,4.861,7.07,9.018,12.495,9.645c4.966,0.574,9.946-1.934,13.281-5.684    c3.334-3.75,5.212-8.6,6.368-13.497L364.234,72.346z"
   id="path921" />
		<g
   id="g969">
			<path
   style="fill:#ffccaa"
   d="M371.361,186.233c-2.417-0.12-18.551,3.75-18.551,3.75l18.773,73.495l30.043,2.433l26.674-83.667     L371.361,186.233z"
   id="path923" />
			<path
   style="fill:#263238;"
   d="M405.13,248.356c-4.273,5.296-10.314,9.118-16.906,10.698c-3.674,0.88-7.632,1.058-11.153-0.32     c-3.52-1.378-6.5-4.533-6.942-8.31l-5.094,15.593l9.112,45.436l14.795,42.369l28.948-0.173L405.13,248.356z"
   id="path925" />
			<path
   style="fill:#631d73;fill-opacity:1"
   d="M289.52,257.367l12.931-15.63c0,0,12.486-40.773,16.243-43.817     c3.757-3.044,38.021-11.646,38.021-11.646l12.201,52.665l6.211,64.815l11.37,25.749l11.179,24.204l-39.244,0.113     c0,0-16.014-36.129-24.478-57.141c-2.75-6.826-4.477-14.024-5.094-21.365l-0.421-5.01c0,0-25.532,59.061-31.546,62.869     c-6.014,3.809-13.528,9.517-21.813,9.162c-8.285-0.355-25.3-24.95-25.3-24.95l-0.095-32.859l24.069-10.053l4.168,9.087     L289.52,257.367z"
   id="path927" />
			<path
   style="fill:#631d73;fill-opacity:1"
   d="M393.082,327.724l2.622-6.45l55.552-26.122l-1.712-77.356l14.794-31.538     c0,0,8.398,3.673,13.265,14.513c3.422,7.621,13.316,115.509,7.712,118.875c-7.31,4.39-56.478,23.897-72.911,30.374     c-3.07,1.21-6.553-0.022-8.201-2.897L393.082,327.724z"
   id="path929" />
			<path
   style="fill:#631d73;fill-opacity:1"
   d="M457.85,319.293l6.293-133.327l-31.325-5.763l-9.034-6.489l-7.121,0.021     c0,0,2.619,6.78,2.264,12.361c-0.355,5.581-26.144,105.442-26.144,105.442l14.651,62.143l66.229-0.204L457.85,319.293z"
   id="path931" />
			<g
   id="g935">
				<path
   style="fill:#263238;"
   d="M432.818,180.203c0.006,0,0.016,0.063,0.029,0.189c0.013,0.147,0.029,0.33,0.05,0.561      c0.037,0.523,0.089,1.252,0.155,2.19c0.114,1.918,0.253,4.732,0.324,8.312c0.179,7.16-0.114,17.375-0.708,29.561l-0.01,0.205      l-0.205,0.011c-3.73,0.208-7.682,0.428-11.793,0.656l0.195-0.374c2.557,4.087,6.251,7.821,10.816,10.474l0.201,0.117      l-0.096,0.212c-1.51,3.342-3.095,6.851-4.708,10.42c-4.494,9.999-8.678,19.569-12.057,28.442      c-3.405,8.862-6.05,17.001-7.892,23.938c-1.854,6.936-2.928,12.651-3.63,16.604c-0.302,1.963-0.538,3.498-0.703,4.57      c-0.081,0.503-0.144,0.896-0.191,1.188c-0.046,0.267-0.074,0.404-0.083,0.403c-0.009-0.001,0.001-0.14,0.03-0.409      c0.035-0.294,0.081-0.69,0.14-1.195c0.137-1.049,0.311-2.601,0.607-4.589c0.641-3.967,1.662-9.703,3.474-16.665      c1.801-6.963,4.415-15.131,7.8-24.015c3.36-8.896,7.535-18.483,12.031-28.485c1.615-3.569,3.202-7.077,4.713-10.419l0.105,0.329      c-4.639-2.702-8.385-6.502-10.973-10.66l-0.22-0.353l0.414-0.022c4.111-0.216,8.065-0.425,11.795-0.621l-0.215,0.216      c0.638-12.184,0.995-22.382,0.895-29.536c-0.031-3.576-0.128-6.39-0.197-8.309c-0.037-0.939-0.066-1.669-0.086-2.192      c-0.006-0.232-0.01-0.416-0.014-0.563C432.809,180.268,432.812,180.203,432.818,180.203z"
   id="path933" />
			</g>
			<g
   id="g939">
				<path
   style="fill:#263238;"
   d="M395.947,345.857c0,0-0.15-0.058-0.431-0.195c-0.3-0.15-0.713-0.355-1.243-0.62      c-1.108-0.519-2.667-1.422-4.662-2.609c-0.964-0.646-2.057-1.335-3.212-2.146c-1.125-0.854-2.4-1.714-3.652-2.789      c-2.58-2.055-5.331-4.632-8.136-7.693c-5.618-6.108-11.33-14.334-15.856-24.351c-4.562-9.998-7.878-21.712-9.929-34.2      c-1.329-7.943-2.098-15.721-2.637-23.121c-0.267-3.685-0.431-7.393,0.541-10.833c0.955-3.389,3.126-6.494,6.248-7.824      l-0.06,0.382c-2.471-2.139-5.924-2.699-8.715-1.793l-0.285,0.093l0.01-0.299c0.37-11.488,0.674-20.945,0.887-27.557      c0.119-3.275,0.213-5.843,0.277-7.619c0.038-0.857,0.067-1.522,0.089-1.996c0.023-0.451,0.052-0.682,0.052-0.682      s0.015,0.233,0.012,0.684c-0.007,0.475-0.015,1.14-0.027,1.997c-0.038,1.777-0.093,4.346-0.163,7.623      c-0.169,6.613-0.412,16.072-0.706,27.562l-0.276-0.206c2.93-0.961,6.531-0.393,9.145,1.85l0.277,0.238l-0.337,0.144      c-2.949,1.262-5.044,4.246-5.962,7.535c-0.937,3.34-0.777,6.988-0.504,10.665c0.55,7.388,1.323,15.15,2.649,23.071      c2.046,12.454,5.336,24.125,9.853,34.089c4.481,9.981,10.133,18.188,15.691,24.3c2.776,3.063,5.496,5.647,8.049,7.715      c1.238,1.082,2.5,1.95,3.612,2.813c1.143,0.821,2.224,1.519,3.176,2.177c1.973,1.21,3.512,2.139,4.602,2.688      c0.52,0.284,0.924,0.505,1.218,0.665C395.813,345.767,395.947,345.857,395.947,345.857z"
   id="path937" />
			</g>
			<g
   id="g943">
				<path
   style="fill:#263238;"
   d="M449.124,229.818c0.006,0,0.017,0.104,0.032,0.309c0.014,0.222,0.033,0.524,0.058,0.915      c0.044,0.827,0.108,2.018,0.192,3.564c0.153,3.139,0.375,7.705,0.656,13.494c0.533,11.625,1.29,28.156,2.193,47.858l0.007,0.157      l-0.145,0.064c-15.234,6.752-32.861,14.564-51.557,22.851c-1.664,0.736-3.319,1.469-4.946,2.189l0.135-0.14      c-0.365,0.897-0.721,1.774-1.076,2.647l0-0.197c3.644,8.855,7.158,17.397,10.456,25.41l-0.103-0.119      c1.337,0.737,2.814,1.335,4.295,1.448c0.37,0.032,0.736,0.004,1.089-0.055c0.339-0.073,0.689-0.207,1.053-0.35      c0.716-0.273,1.429-0.545,2.138-0.815c2.835-1.086,5.614-2.15,8.332-3.191c5.427-2.102,10.611-4.11,15.511-6.008      c9.787-3.821,18.412-7.255,25.545-10.175c7.132-2.921,12.773-5.332,16.583-7.109c1.903-0.891,3.352-1.619,4.291-2.179      c0.469-0.279,0.816-0.511,1.017-0.701c0.214-0.184,0.231-0.332,0.241-0.331c0,0,0,0.163-0.211,0.362      c-0.196,0.205-0.538,0.451-1.002,0.743c-0.93,0.587-2.37,1.34-4.264,2.257c-3.793,1.827-9.417,4.284-16.535,7.246      c-7.119,2.962-15.732,6.432-25.509,10.283c-4.895,1.91-10.075,3.931-15.498,6.048c-2.716,1.046-5.494,2.116-8.327,3.207      c-0.709,0.271-1.421,0.544-2.137,0.818c-0.349,0.137-0.717,0.283-1.131,0.374c-0.404,0.07-0.814,0.099-1.216,0.065      c-1.615-0.127-3.107-0.738-4.518-1.51l-0.07-0.038l-0.034-0.081c-3.303-8.01-6.825-16.549-10.476-25.402l-0.04-0.098l0.04-0.099      c0.355-0.873,0.711-1.75,1.076-2.647l0.04-0.098l0.096-0.043c1.627-0.72,3.282-1.453,4.946-2.189      c18.705-8.267,36.34-16.061,51.581-22.797l-0.137,0.221c-0.825-19.706-1.518-36.239-2.005-47.866      c-0.226-5.792-0.405-10.36-0.527-13.5c-0.052-1.548-0.093-2.74-0.121-3.567c-0.009-0.392-0.017-0.694-0.022-0.916      C449.116,229.923,449.117,229.818,449.124,229.818z"
   id="path941" />
			</g>
			<g
   id="g947">
				<path
   style="fill:#263238;"
   d="M463.093,190.05c0.07,0.062-1.11,1.398-2.766,3.739c-1.658,2.336-3.721,5.736-5.418,9.766      c-1.687,4.036-2.667,7.89-3.174,10.71c-0.512,2.822-0.641,4.6-0.734,4.593c-0.036-0.002-0.031-0.448,0.01-1.254      c0.031-0.807,0.15-1.971,0.361-3.399c0.418-2.856,1.352-6.771,3.057-10.851c1.715-4.074,3.853-7.484,5.6-9.781      c0.871-1.152,1.62-2.051,2.174-2.638C462.752,190.342,463.067,190.026,463.093,190.05z"
   id="path945" />
			</g>
			<g
   id="g951">
				<path
   style="fill:#263238;"
   d="M329.759,231.534c-0.036,0.003-0.122-0.485-0.246-1.369c-0.116-0.884-0.318-2.16-0.603-3.727      c-0.567-3.134-1.598-7.425-3.291-11.98c-1.704-4.553-3.735-8.471-5.361-11.21c-0.811-1.371-1.495-2.466-1.987-3.211      c-0.485-0.749-0.74-1.174-0.711-1.195c0.029-0.021,0.34,0.364,0.878,1.08c0.545,0.711,1.279,1.78,2.135,3.134      c1.715,2.704,3.817,6.63,5.534,11.219c1.707,4.591,2.69,8.934,3.167,12.1c0.241,1.584,0.387,2.873,0.442,3.767      C329.777,231.036,329.795,231.531,329.759,231.534z"
   id="path949" />
			</g>
			<g
   id="g955">
				<path
   style="fill:#754034;"
   d="M383.689,259.717c-0.144,0-0.265-1.752-0.272-3.913c-0.006-2.162,0.105-3.915,0.249-3.915      c0.144,0,0.265,1.751,0.272,3.914C383.945,257.964,383.833,259.717,383.689,259.717z"
   id="path953" />
			</g>
			<g
   style="opacity:0.3;"
   id="g959">
				<path
   d="M427.6,223.47c2.933,0.394,5.867,0.788,8.8,1.182c-1.894-4.839-1.623-30.965-3.149-36.114l-0.812,32.467l-11.794,0.639      c0,0,5.073,6.809,7.443,8.235c2.37,1.426,3.452,2.333,3.452,2.333s-16.68,38.984-19.283,45.719      c-5.531,14.307-9.55,38.381-9.55,38.381c13.835-24.031,21.866-51.775,29.112-78.577c0.564-2.084,1.132-4.245,0.799-6.38      C432.129,228.217,429.809,225.737,427.6,223.47z"
   id="path957" />
			</g>
			<g
   style="opacity:0.3;"
   id="g963">
				<path
   d="M344.265,227.888c-0.16,0.478,0.122-10.978,0.195-11.243s-1.504,13.775-1.781,14.605      c1.609-0.352,3.218-0.705,4.827-1.057c-2.452,1.065-4.141,3.465-4.95,6.028c-0.809,2.563-0.85,5.301-0.808,7.989      c0.321,20.089,4.678,40.722,15.476,57.618c-7.054-16.817-9.248-35.25-10.93-53.426c-0.331-3.577-0.612-7.136,0.39-10.584      c1.002-3.448,3.283-7.117,6.422-8.287C350.691,227.506,347.289,226.499,344.265,227.888"
   id="path961" />
			</g>
			<g
   style="opacity:0.3;"
   id="g967">
				<path
   d="M406.399,349.763c1.267,2.682,5.905,2.496,9.128,2.135c3.223-0.361,6.292-1.538,9.321-2.705      c13.444-5.181,26.441-9.84,39.885-15.021l-1.876-4.055l-51.879,20.19C409.221,350.797,407.705,350.584,406.399,349.763z"
   id="path965" />
			</g>
		</g>
		<g
   id="g1073">
			<path
   style="fill:#e9c6af"
   d="M269.065,219.799c-2.561-0.223-10.158,1.956-12.149,5.526l-4.176,14.018     c0,0,9.402-9.685,13.732-11.243c6.781-2.441,9.923-2.49,6.972-6.14C272.41,220.68,271.124,219.979,269.065,219.799z"
   id="path971" />
			<polygon
   style="fill:#e9c6af"
   points="229.514,230.391 234.072,240.896 234.252,260.005 256.976,256.649 253.705,238.348      255.947,230.314 246.578,222.399    "
   id="polygon973" />
			<g
   id="g1031">
				<g
   id="g981">
					
						<rect
   x="209.366"
   y="247.247"
   transform="matrix(1 -0.0029 0.0029 1 -0.8288 0.7758)"
   style="fill:#FAFAFA;"
   width="119.123"
   height="81.789"
   id="rect975" />
					<g
   id="g979">
						<path
   style="fill:#263238;"
   d="M328.607,328.865c0,0-0.017-0.515-0.027-1.494c-0.008-0.989-0.02-2.436-0.036-4.326        c-0.023-3.795-0.057-9.355-0.101-16.47c-0.067-14.219-0.164-34.64-0.281-59.498l0.21,0.209        c-32.992,0.109-74.343,0.246-119.113,0.394h-0.01l0.26-0.261c0.076,29.198,0.148,56.939,0.213,81.788l-0.238-0.237        c35.106-0.053,64.855-0.098,85.842-0.13c10.501-0.003,18.807-0.005,24.502-0.007c2.84,0.004,5.027,0.008,6.517,0.01        c0.734,0.004,1.294,0.007,1.684,0.009C328.406,328.856,328.607,328.865,328.607,328.865s-0.181,0.01-0.552,0.016        c-0.384,0.004-0.935,0.011-1.657,0.019c-1.479,0.011-3.65,0.027-6.469,0.047c-5.682,0.031-13.97,0.077-24.448,0.134        c-21.025,0.089-50.827,0.216-85.997,0.365l-0.238,0.001l-0.001-0.238c-0.078-24.849-0.166-52.59-0.258-81.788l-0.001-0.261        h0.26l0.01,0c44.77-0.11,86.121-0.211,119.113-0.292l0.21-0.001l0,0.209c0.026,24.913,0.047,45.379,0.062,59.63        c-0.003,7.094-0.005,12.638-0.006,16.423c-0.005,1.872-0.009,3.307-0.011,4.286        C328.62,328.38,328.607,328.865,328.607,328.865z"
   id="path977" />
					</g>
				</g>
				<g
   id="g985">
					<path
   style="fill:#263238;"
   d="M218.415,320.436c-0.144,0-0.3-13.874-0.35-30.985c-0.049-17.117,0.027-30.989,0.171-30.989       c0.144,0,0.3,13.871,0.35,30.988C218.635,306.56,218.558,320.435,218.415,320.436z"
   id="path983" />
				</g>
				<g
   id="g989">
					<path
   style="fill:#EBEBEB;"
   d="M321.767,311.603c0,0.144-23.232,0.327-51.884,0.41c-28.662,0.083-51.89,0.033-51.891-0.111       s23.227-0.327,51.889-0.41C298.534,311.409,321.767,311.459,321.767,311.603z"
   id="path987" />
				</g>
				<g
   id="g993">
					<path
   style="fill:#EBEBEB;"
   d="M321.741,302.511c0.001,0.144-23.232,0.327-51.884,0.41c-28.662,0.083-51.89,0.033-51.891-0.111       c0-0.144,23.227-0.327,51.889-0.41C298.508,302.317,321.741,302.367,321.741,302.511z"
   id="path991" />
				</g>
				<g
   id="g997">
					<path
   style="fill:#EBEBEB;"
   d="M321.715,293.418c0,0.144-23.232,0.327-51.884,0.41c-28.662,0.083-51.89,0.033-51.891-0.111       s23.227-0.327,51.889-0.41C298.482,293.225,321.715,293.275,321.715,293.418z"
   id="path995" />
				</g>
				<g
   id="g1001">
					<path
   style="fill:#EBEBEB;"
   d="M321.689,284.326c0,0.144-23.232,0.327-51.884,0.41c-28.662,0.083-51.89,0.033-51.891-0.111       s23.227-0.327,51.889-0.41C298.455,284.133,321.688,284.182,321.689,284.326z"
   id="path999" />
				</g>
				<g
   id="g1005">
					<path
   style="fill:#EBEBEB;"
   d="M321.663,275.234c0,0.144-23.232,0.327-51.884,0.41c-28.662,0.083-51.89,0.033-51.891-0.111       s23.227-0.327,51.889-0.41C298.429,275.04,321.662,275.09,321.663,275.234z"
   id="path1003" />
				</g>
				<g
   id="g1009">
					<path
   style="fill:#EBEBEB;"
   d="M321.636,266.141c0,0.144-23.232,0.327-51.884,0.41c-28.662,0.083-51.89,0.033-51.891-0.111       s23.227-0.327,51.889-0.41C298.403,265.948,321.636,265.998,321.636,266.141z"
   id="path1007" />
				</g>
				<g
   id="g1013">
					<path
   style="fill:#EBEBEB;"
   d="M321.61,257.049c0,0.144-23.232,0.327-51.884,0.41c-28.662,0.082-51.89,0.033-51.891-0.111       c0-0.144,23.227-0.327,51.889-0.41C298.377,256.856,321.61,256.905,321.61,257.049z"
   id="path1011" />
				</g>
				
					<rect
   x="225.018"
   y="306.237"
   transform="matrix(1 -0.0029 0.0029 1 -0.9044 0.6623)"
   style="fill:#631d73;fill-opacity:1"
   width="7.44"
   height="14.169"
   id="rect1015" />
				
					<rect
   x="279.062"
   y="306.081"
   transform="matrix(1 -0.0029 0.0029 1 -0.8996 0.8146)"
   style="fill:#631d73;fill-opacity:1"
   width="7.44"
   height="14.169"
   id="rect1017" />
				
					<rect
   x="239.597"
   y="295.774"
   transform="matrix(1 -0.0029 0.0029 1 -0.8892 0.7044)"
   style="fill:#631d73;fill-opacity:1"
   width="7.44"
   height="24.59"
   id="rect1019" />
				
					<rect
   x="266.855"
   y="289.298"
   transform="matrix(1 -0.0029 0.0029 1 -0.8755 0.7795)"
   style="fill:#631d73;fill-opacity:1"
   width="7.44"
   height="30.987"
   id="rect1021" />
				
					<rect
   x="253.367"
   y="270.51"
   transform="matrix(1 -0.0029 0.0029 1 -0.8486 0.7407)"
   style="fill:#631d73;fill-opacity:1"
   width="7.44"
   height="49.814"
   id="rect1023" />
				
					<rect
   x="293.444"
   y="279.609"
   transform="matrix(1 -0.0029 0.0029 1 -0.8614 0.8559)"
   style="fill:#631d73;fill-opacity:1"
   width="7.44"
   height="40.6"
   id="rect1025" />
				<g
   id="g1029">
					<path
   style="fill:#263238;"
   d="M309.812,320.172c0,0.144-20.42,0.319-45.605,0.392c-25.193,0.073-45.61,0.015-45.611-0.129       c0-0.144,20.416-0.319,45.609-0.392C289.39,319.971,309.812,320.029,309.812,320.172z"
   id="path1027" />
				</g>
			</g>
			<polygon
   style="fill:#263238;"
   points="262.124,253.567 259.807,258.461 257.04,253.582 256.827,205.07 261.911,205.055    "
   id="polygon1033" />
			<path
   style="fill:#e9c6af"
   d="M259.972,205.157c0,0-2.193-4.385-4.617-4.378c-2.423,0.007-6.045,4.409-6.045,4.409     s-5.581-2.912-7.518-2.174c-1.936,0.738-4.83,5.626-4.83,5.626s-2.988,0.984-4.276,2.208c-1.288,1.224-1.519,5.128-1.519,5.128     s-3.391,0.498-3.385,2.45s0.029,10.003,1.731,11.951c1.702,1.947,11.173,9.239,14.443,8.986c3.271-0.253,3.257-4.889,2.527-5.863     c0,0,3.885,2.917,5.816,0.227c1.931-2.689,0.95-6.59,0.95-6.59s1.492,4.64,4.5,2.586c3.488-2.383,0.498-7.356,0.498-7.356     s2.512,4.017,3.96,2.061c1.448-1.956,0.954-5.127-0.021-7.32C261.212,214.913,259.972,205.157,259.972,205.157z"
   id="path1035" />
			<g
   id="g1039">
				<path
   style="fill:#754034;"
   d="M243.588,231.256c-0.051,0.046-0.642-0.501-1.51-1.468c-0.867-0.967-1.998-2.366-3.121-4.002      c-1.122-1.638-2.019-3.197-2.608-4.355c-0.59-1.158-0.886-1.906-0.826-1.937c0.139-0.07,1.633,2.758,3.863,5.997      C241.603,228.738,243.703,231.152,243.588,231.256z"
   id="path1037" />
			</g>
			<g
   id="g1043">
				<path
   style="fill:#754034;"
   d="M253.291,226.762c-0.116,0.085-2.497-2.955-5.319-6.789c-2.822-3.836-5.016-7.013-4.9-7.098      c0.116-0.085,2.497,2.954,5.319,6.79C251.213,223.498,253.407,226.676,253.291,226.762z"
   id="path1041" />
			</g>
			<g
   id="g1047">
				<path
   style="fill:#754034;"
   d="M258.608,222.602c-0.065,0.033-0.55-0.775-1.302-2.096c-0.841-1.489-1.829-3.237-2.921-5.168      c-1.1-1.927-2.095-3.671-2.942-5.157c-0.75-1.323-1.196-2.153-1.133-2.192c0.06-0.037,0.617,0.724,1.448,2      c0.832,1.276,1.933,3.07,3.081,5.091c1.147,2.021,2.123,3.885,2.793,5.253C258.302,221.701,258.671,222.57,258.608,222.602z"
   id="path1045" />
			</g>
			<g
   id="g1051">
				<path
   style="fill:#754034;"
   d="M252.774,226.673c0.013-0.009,0.083,0.071,0.208,0.237c0.13,0.162,0.287,0.43,0.441,0.798      c0.302,0.727,0.555,1.941,0.159,3.369c-0.195,0.706-0.561,1.454-1.155,2.109c-0.578,0.658-1.443,1.2-2.462,1.339      c-1.017,0.126-2.09-0.128-3.066-0.613c-0.98-0.486-1.897-1.184-2.674-2.07l0.368-0.352c0.98,0.918,1.985,2.064,2.3,3.575      c0.141,0.725,0.104,1.481-0.152,2.168c-0.247,0.688-0.759,1.286-1.393,1.617c-1.304,0.663-2.703,0.421-3.87,0.143      c-2.366-0.614-4.345-1.634-5.857-2.673c-1.521-1.038-2.576-2.102-3.257-2.862c-0.333-0.389-0.585-0.696-0.739-0.918      c-0.158-0.218-0.233-0.338-0.219-0.349c0.083-0.086,1.393,1.827,4.419,3.823c1.509,0.98,3.459,1.941,5.769,2.513      c1.124,0.264,2.436,0.441,3.512-0.126c1.087-0.549,1.545-1.968,1.276-3.234c-0.271-1.326-1.189-2.412-2.136-3.304l0.367-0.352      c1.441,1.636,3.47,2.762,5.299,2.573c0.9-0.109,1.68-0.57,2.229-1.165c0.558-0.589,0.921-1.276,1.125-1.935      c0.416-1.333,0.23-2.495-0.009-3.213C253.005,227.042,252.733,226.699,252.774,226.673z"
   id="path1049" />
			</g>
			<g
   id="g1055">
				<path
   style="fill:#754034;"
   d="M257.586,220.639c0.047-0.031,0.616,0.679,1.175,2.034c0.253,0.688,0.581,1.476,0.7,2.482      c0.089,0.986-0.041,2.083-0.461,3.149c-0.398,1.047-1.221,2.045-2.319,2.209c-1.101,0.137-1.936-0.498-2.41-1.053      c-0.485-0.58-0.716-1.134-0.874-1.505c-0.151-0.377-0.212-0.593-0.18-0.608c0.033-0.016,0.157,0.173,0.362,0.517      c0.21,0.339,0.49,0.852,0.966,1.349c0.457,0.478,1.224,0.966,2.06,0.827c0.84-0.146,1.542-0.956,1.913-1.93      c0.387-0.977,0.523-2.007,0.466-2.914c-0.076-0.89-0.368-1.725-0.568-2.395C257.963,221.457,257.51,220.681,257.586,220.639z"
   id="path1053" />
			</g>
			<g
   id="g1059">
				<path
   style="fill:#754034;"
   d="M251.074,238.389c0.072,0.124-1.818,1.359-4.221,2.758c-2.404,1.399-4.411,2.432-4.483,2.308      c-0.072-0.124,1.817-1.359,4.221-2.758C248.994,239.298,251.002,238.265,251.074,238.389z"
   id="path1057" />
			</g>
			<g
   id="g1071">
				<path
   style="fill:#ffccaa"
   d="M395.882,323.206l-34.529,10.055l-12.62-8.618c0,0-11.498-3.519-15.235-3.979      c-3.737-0.46-9.896-0.217-13.966-0.206c-4.07,0.012-6.138-1.611-6.138-1.611s-3.552-0.129-2.601,4.42      c1.18,5.645,14.602,5.606,14.602,5.606l-17.796,0.051l-10.35,0.03l9.037,6.331c2.284,1.6,4.996,2.466,7.778,2.484l3.615,0.023      c-0.928,5.019,0.884,7.722,4.192,9.162c-2.611,2.451-1.298,7.054,3.818,6.867c2.482-0.091,45.798-0.038,45.798-0.038      l37.281-5.299L395.882,323.206z"
   id="path1061" />
				<g
   id="g1065">
					<path
   style="fill:#754034;"
   d="M325.687,337.449c0.013,0.162-2.598,0.397-5.809,0.42c-3.213,0.023-5.805,0.025-5.816-0.1       c-0.013-0.161,2.597-0.398,5.809-0.42C323.084,337.326,325.676,337.324,325.687,337.449z"
   id="path1063" />
				</g>
				<g
   id="g1069">
					<path
   style="fill:#754034;"
   d="M336.096,326.73c0.021,0.142-3.096,0.717-6.96,1.284c-3.866,0.567-7.016,0.912-7.036,0.769       c-0.021-0.142,3.095-0.717,6.961-1.284C332.924,326.933,336.075,326.588,336.096,326.73z"
   id="path1067" />
				</g>
			</g>
		</g>
		<g
   id="g1385">
			<g
   id="g1081">
				<g
   id="g1079">
					<g
   id="g1077">
						<path
   style="fill:#263238;"
   d="M342.365,188.62c0.265-0.131-0.137-1.56-1.042-4.041c-0.901-2.482-2.33-6.01-3.908-10.398        c-1.573-4.384-3.306-9.648-4.391-15.601c-1.111-5.956-1.369-12.559-0.068-19.392c1.257-6.854,3.474-13.291,5.28-19.279        c1.847-5.983,3.226-11.575,3.783-16.381c0.59-4.805,0.37-8.774-0.104-11.435c-0.481-2.669-1.106-4.046-1.365-3.991        c-0.661,0.116,0.425,5.902-1.476,14.948c-0.9,4.521-2.504,9.789-4.534,15.648c-1.987,5.871-4.384,12.403-5.734,19.728        c-0.342,1.826-0.566,3.662-0.727,5.48c-0.061,0.912-0.131,1.817-0.128,2.719c-0.003,0.9-0.056,1.794,0.004,2.676        c0.099,3.534,0.563,6.911,1.258,10.046c1.372,6.285,3.477,11.631,5.441,15.97c1.972,4.343,3.828,7.703,5.189,9.978        C341.209,187.569,342.107,188.748,342.365,188.62z"
   id="path1075" />
					</g>
				</g>
			</g>
			<g
   id="g1333">
				<g
   id="g1331">
					<g
   id="g1329">
						<g
   id="g1327">
							<g
   id="g1325">
								<g
   id="g1323">
									<g
   id="g1321">
										<g
   id="g1319">
											<g
   id="g1317">
												<g
   id="g1315">
													<g
   id="g1273">
														<g
   id="g1271">
															<g
   id="g1269">
																<g
   id="g1095">
																	<g
   id="g1093">
																		<g
   id="g1091">
																			<g
   id="g1089">
																				<g
   id="g1087">
																					<g
   id="g1085">
																						<path
   style="fill:#ffccaa"
   d="M410.751,105.509c-1.138-19.141-18.015-33.622-37.548-31.781                        c-18.411,1.735-31.991,18.111-31.369,36.395c0.545,16.028,1.451,32.139,2.595,37.836                        c3.452,17.178,14.898,21.945,19.407,23.172c1.029,0.28,3.726,0.307,4.794,0.256l0,0                        c0.067-0.003,0.122,0.05,0.122,0.116l-0.159,20.503c0.676,13.285,10.154,23.446,23.585,22.844                        c13.475-0.604,21.866-12.502,21.438-25.843L410.751,105.509z"
   id="path1083" />
																					</g>
																				</g>
																			</g>
																		</g>
																	</g>
																</g>
																<g
   id="g1139">
																	<g
   id="g1115">
																		<g
   id="g1113">
																			<g
   id="g1111">
																				<g
   id="g1109">
																					<g
   id="g1107">
																						<g
   id="g1105">
																							<g
   id="g1103">
																								<g
   id="g1101">
																									<g
   id="g1099">
																										<path
   style="fill:#263238;"
   d="M350.571,119.064c0.004,1.473,1.269,2.675,2.823,2.688                            c1.551,0.012,2.807-1.168,2.802-2.641c-0.005-1.473-1.269-2.677-2.82-2.69                            C351.822,116.409,350.565,117.592,350.571,119.064z"
   id="path1097" />
																									</g>
																								</g>
																							</g>
																						</g>
																					</g>
																				</g>
																			</g>
																		</g>
																	</g>
																	<g
   id="g1137">
																		<g
   id="g1135">
																			<g
   id="g1133">
																				<g
   id="g1131">
																					<g
   id="g1129">
																						<g
   id="g1127">
																							<g
   id="g1125">
																								<g
   id="g1123">
																									<g
   id="g1121">
																										<g
   id="g1119">
																											<path
   style="fill:#263238;"
   d="M346.728,114.031c0.363,0.348,2.434-1.309,5.462-1.437                             c3.023-0.17,5.305,1.271,5.619,0.89c0.155-0.17-0.226-0.809-1.22-1.463                             c-0.979-0.651-2.63-1.254-4.516-1.161c-1.886,0.094-3.446,0.853-4.33,1.597                             C346.839,113.205,346.55,113.876,346.728,114.031z"
   id="path1117" />
																										</g>
																									</g>
																								</g>
																							</g>
																						</g>
																					</g>
																				</g>
																			</g>
																		</g>
																	</g>
																</g>
																<g
   id="g1183">
																	<g
   id="g1159">
																		<g
   id="g1157">
																			<g
   id="g1155">
																				<g
   id="g1153">
																					<g
   id="g1151">
																						<g
   id="g1149">
																							<g
   id="g1147">
																								<g
   id="g1145">
																									<g
   id="g1143">
																										<path
   style="fill:#263238;"
   d="M379.52,118.779c0.005,1.473,1.269,2.674,2.823,2.688                            c1.551,0.013,2.807-1.168,2.802-2.641c-0.005-1.473-1.269-2.677-2.82-2.69                            C380.772,116.123,379.516,117.305,379.52,118.779z"
   id="path1141" />
																									</g>
																								</g>
																							</g>
																						</g>
																					</g>
																				</g>
																			</g>
																		</g>
																	</g>
																	<g
   id="g1181">
																		<g
   id="g1179">
																			<g
   id="g1177">
																				<g
   id="g1175">
																					<g
   id="g1173">
																						<g
   id="g1171">
																							<g
   id="g1169">
																								<g
   id="g1167">
																									<g
   id="g1165">
																										<g
   id="g1163">
																											<path
   style="fill:#263238;"
   d="M376.51,113.257c0.364,0.347,2.437-1.309,5.463-1.437                             c3.022-0.171,5.305,1.271,5.619,0.889c0.155-0.169-0.223-0.809-1.221-1.462                             c-0.979-0.652-2.63-1.254-4.516-1.162c-1.886,0.095-3.445,0.853-4.33,1.597                             C376.625,112.431,376.333,113.102,376.51,113.257z"
   id="path1161" />
																										</g>
																									</g>
																								</g>
																							</g>
																						</g>
																					</g>
																				</g>
																			</g>
																		</g>
																	</g>
																</g>
																<g
   id="g1205">
																	<g
   id="g1203">
																		<g
   id="g1201">
																			<g
   id="g1199">
																				<g
   id="g1197">
																					<g
   id="g1195">
																						<g
   id="g1193">
																							<g
   id="g1191">
																								<g
   id="g1189">
																									<g
   id="g1187">
																										<path
   style="fill:#263238;"
   d="M366.39,135.972c0.007-0.171-1.887-0.408-4.952-0.658                            c-0.776-0.045-1.514-0.164-1.664-0.68c-0.204-0.545,0.087-1.384,0.428-2.291                            c0.654-1.884,1.339-3.859,2.059-5.929c2.851-8.438,4.883-15.362,4.54-15.471                            c-0.343-0.108-2.933,6.643-5.785,15.081c-0.684,2.08-1.339,4.062-1.961,5.959                            c-0.259,0.882-0.723,1.891-0.284,3.021c0.23,0.562,0.814,0.952,1.315,1.062                            c0.501,0.127,0.936,0.116,1.32,0.122C364.481,136.215,366.385,136.143,366.39,135.972z"
   id="path1185" />
																									</g>
																								</g>
																							</g>
																						</g>
																					</g>
																				</g>
																			</g>
																		</g>
																	</g>
																</g>
																<g
   id="g1225">
																	<g
   id="g1223">
																		<g
   id="g1221">
																			<g
   id="g1219">
																				<g
   id="g1217">
																					<g
   id="g1215">
																						<g
   id="g1213">
																							<g
   id="g1211">
																								<g
   id="g1209">
																									<path
   style="fill:#754034;"
   d="M368.752,171.381c0,0,11.727,0.426,26.01-8.928                           c0,0-4.016,15.501-26.053,14.452L368.752,171.381z"
   id="path1207" />
																								</g>
																							</g>
																						</g>
																					</g>
																				</g>
																			</g>
																		</g>
																	</g>
																</g>
																<g
   id="g1245">
																	<g
   id="g1243">
																		<g
   id="g1241">
																			<g
   id="g1239">
																				<g
   id="g1237">
																					<g
   id="g1235">
																						<g
   id="g1233">
																							<g
   id="g1231">
																								<g
   id="g1229">
																									<path
   style="fill:#ff2a2a"
   d="M367.952,143.137c1.033-1.474,2.911-2.342,4.813-2.225                           c1.319,0.081,2.671,0.649,3.511,1.672c0.84,1.023,1.065,2.519,0.379,3.561                           c-0.773,1.174-2.469,1.513-3.931,1.171c-1.461-0.342-2.741-1.227-3.958-2.113                           c-0.337-0.245-0.681-0.501-0.9-0.847c-0.218-0.346-0.279-0.809-0.039-1.116"
   id="path1227" />
																								</g>
																							</g>
																						</g>
																					</g>
																				</g>
																			</g>
																		</g>
																	</g>
																</g>
																<g
   id="g1267">
																	<g
   id="g1265">
																		<g
   id="g1263">
																			<g
   id="g1261">
																				<g
   id="g1259">
																					<g
   id="g1257">
																						<g
   id="g1255">
																							<g
   id="g1253">
																								<g
   id="g1251">
																									<g
   id="g1249">
																										<path
   style="fill:#263238;"
   d="M375.382,137.646c-0.494-0.006-0.373,3.247-3.096,5.681                            c-2.717,2.442-6.235,2.233-6.243,2.689c-0.038,0.206,0.805,0.597,2.285,0.57                            c1.452-0.016,3.552-0.572,5.219-2.061c1.661-1.493,2.325-3.415,2.385-4.755                            C376.003,138.406,375.606,137.617,375.382,137.646z"
   id="path1247" />
																									</g>
																								</g>
																							</g>
																						</g>
																					</g>
																				</g>
																			</g>
																		</g>
																	</g>
																</g>
															</g>
														</g>
													</g>
													<g
   id="g1293">
														<g
   id="g1291">
															<g
   id="g1289">
																<g
   id="g1287">
																	<g
   id="g1285">
																		<g
   id="g1283">
																			<g
   id="g1281">
																				<g
   id="g1279">
																					<g
   id="g1277">
																						<path
   style="fill:#263238;"
   d="M374.944,108.071c0.331,0.801,3.338,0.28,6.907,0.545                        c3.575,0.194,6.479,1.094,6.922,0.343c0.197-0.359-0.333-1.103-1.521-1.84                        c-1.179-0.736-3.04-1.403-5.182-1.542c-2.141-0.135-4.081,0.287-5.354,0.866                        C375.431,107.021,374.8,107.69,374.944,108.071z"
   id="path1275" />
																					</g>
																				</g>
																			</g>
																		</g>
																	</g>
																</g>
															</g>
														</g>
													</g>
													<g
   id="g1313">
														<g
   id="g1311">
															<g
   id="g1309">
																<g
   id="g1307">
																	<g
   id="g1305">
																		<g
   id="g1303">
																			<g
   id="g1301">
																				<g
   id="g1299">
																					<g
   id="g1297">
																						<path
   style="fill:#263238;"
   d="M347.602,107.858c0.559,0.657,2.617-0.143,5.124-0.288                        c2.502-0.233,4.65,0.249,5.111-0.484c0.2-0.356-0.161-1.023-1.114-1.625                        c-0.939-0.601-2.489-1.057-4.211-0.929c-1.721,0.131-3.191,0.815-4.036,1.552                        C347.618,106.823,347.354,107.537,347.602,107.858z"
   id="path1295" />
																					</g>
																				</g>
																			</g>
																		</g>
																	</g>
																</g>
															</g>
														</g>
													</g>
												</g>
											</g>
										</g>
									</g>
								</g>
							</g>
						</g>
					</g>
				</g>
			</g>
			<path
   style="fill:#263238;"
   d="M338.78,152.34c-2.931,13.092,2.421,26.613,9.119,38.217c2.53,4.383,5.295,8.704,6.796,13.543     c1.501,4.839,1.584,10.401-1.086,14.699c1.839,0.665,4.102-0.258,4.962-2.025c0.244,2.675,0.488,5.349,0.732,8.024     c3.253,1.407,7.137-0.938,8.707-4.133c1.57-3.196,1.441-6.935,1.277-10.496c-0.481-10.451-0.098-22.812-0.579-33.263     l-18.627-3.774L338.78,152.34z"
   id="path1335" />
			<g
   id="g1383">
				<g
   id="g1341">
					<g
   id="g1339">
						<path
   style="fill:#263238;"
   d="M388.989,95.505c7.066,13.606,7.907,29.579,7.398,44.924        c-0.509,15.345-2.209,30.826,0.326,45.967c0.997,5.958,2.651,11.978,1.734,17.948c-0.538,3.508-1.947,6.824-2.654,10.301        c-0.707,3.478-0.605,7.396,1.564,10.194c2.187,2.822,6.13,3.878,9.623,3.211c3.493-0.666,6.557-2.821,9.012-5.409        c5.36-5.649,8.157-13.369,9.197-21.112c1.04-7.743,0.46-15.603-0.121-23.394c-1.511-20.262-3.022-40.525-4.534-60.787        c-0.654-8.763-1.355-17.727-4.899-25.757c-3.698-8.381-10.368-15.257-18.21-19.922c-9.389-5.585-21.53-7.986-31.175-2.865        c-3.218,1.709-6.313,4.977-5.538,8.556c0.613,2.83,3.361,4.575,5.865,6c8.257,4.7,16.515,9.401,24.772,14.101"
   id="path1337" />
					</g>
				</g>
				<g
   id="g1349">
					<g
   id="g1347">
						<g
   id="g1345">
							<path
   style="fill:#263238;"
   d="M401.775,204.936c0.266-0.138-0.253-1.71-1.314-4.464c-1.055-2.754-2.65-6.698-4.29-11.641         c-1.605-4.943-3.235-10.929-3.814-17.668c-0.635-6.721,0.22-14.19,1.6-22.055c1.38-7.877,2.982-15.479,3.435-22.659         c0.463-7.155-0.208-13.711-1.751-18.972c-1.548-5.27-3.882-9.158-5.874-11.451c-0.512-0.566-0.972-1.059-1.376-1.476         c-0.415-0.408-0.815-0.708-1.125-0.957c-0.633-0.488-1.008-0.687-1.111-0.583c-0.103,0.104,0.072,0.506,0.486,1.163         c0.217,0.327,0.478,0.721,0.785,1.183c0.286,0.483,0.623,1.03,1.008,1.634c1.484,2.458,3.233,6.245,4.318,11.23         c1.076,4.984,1.412,11.138,0.765,17.919c-0.629,6.778-2.307,14.232-3.715,22.237c-1.404,7.99-2.215,15.962-1.312,23.179         c0.843,7.19,2.87,13.363,4.886,18.321c2.053,4.958,4.091,8.765,5.611,11.322         C400.512,203.754,401.523,205.067,401.775,204.936z"
   id="path1343" />
						</g>
					</g>
				</g>
				<g
   id="g1357">
					<g
   id="g1355">
						<g
   id="g1353">
							<path
   style="fill:#455A64;"
   d="M426.373,103.468c0.004-0.014-0.22-0.096-0.65-0.24c-0.467-0.151-1.095-0.353-1.886-0.608         c-0.822-0.255-1.824-0.572-2.978-0.975c-1.155-0.398-2.481-0.82-3.919-1.363c-2.897-1.029-6.306-2.369-10.044-3.968         c-3.726-1.627-7.773-3.528-11.929-5.708c-4.148-2.201-8.005-4.469-11.455-6.627c-3.434-2.184-6.469-4.243-8.959-6.056         c-1.263-0.882-2.362-1.739-3.344-2.469c-0.985-0.726-1.816-1.375-2.491-1.91c-0.658-0.509-1.181-0.914-1.57-1.215         c-0.362-0.274-0.557-0.413-0.566-0.401c-0.009,0.011,0.167,0.172,0.512,0.468c0.377,0.316,0.884,0.742,1.521,1.278         c0.66,0.556,1.477,1.225,2.45,1.97c0.97,0.749,2.058,1.624,3.312,2.523c2.472,1.847,5.496,3.937,8.926,6.144         c3.446,2.182,7.308,4.466,11.467,6.672c4.167,2.186,8.23,4.082,11.973,5.692c3.755,1.583,7.182,2.897,10.097,3.892         c1.448,0.526,2.782,0.929,3.946,1.305c1.162,0.382,2.174,0.677,3.003,0.907c0.801,0.223,1.437,0.4,1.91,0.532         C426.137,103.428,426.369,103.482,426.373,103.468z"
   id="path1351" />
						</g>
					</g>
				</g>
				<g
   id="g1365">
					<g
   id="g1363">
						<g
   id="g1361">
							<path
   style="fill:#FFFFFF;"
   d="M426.55,106.507c0.001-0.015-0.238-0.059-0.694-0.131c-0.494-0.073-1.16-0.171-1.998-0.294         c-0.438-0.061-0.92-0.129-1.445-0.202c-0.527-0.095-1.097-0.197-1.708-0.307c-1.223-0.233-2.625-0.444-4.148-0.819         c-0.765-0.173-1.565-0.354-2.399-0.542c-0.833-0.192-1.686-0.449-2.576-0.683c-1.788-0.448-3.655-1.073-5.63-1.697         c-3.918-1.343-8.157-3.026-12.46-5.119c-4.287-2.127-8.215-4.456-11.678-6.739c-1.704-1.183-3.344-2.28-4.794-3.424         c-0.731-0.563-1.457-1.081-2.12-1.625c-0.66-0.545-1.294-1.069-1.9-1.57c-1.23-0.978-2.259-1.961-3.194-2.788         c-0.462-0.417-0.893-0.806-1.292-1.166c-0.38-0.371-0.73-0.712-1.047-1.022c-0.613-0.589-1.099-1.058-1.46-1.405         c-0.337-0.318-0.52-0.48-0.53-0.47c-0.011,0.01,0.151,0.192,0.469,0.53c0.347,0.361,0.816,0.849,1.406,1.463         c0.31,0.318,0.652,0.669,1.024,1.05c0.382,0.376,0.815,0.766,1.271,1.195c0.922,0.846,1.94,1.847,3.161,2.843         c0.602,0.509,1.233,1.042,1.889,1.596c0.66,0.552,1.383,1.078,2.113,1.65c1.447,1.16,3.085,2.272,4.79,3.468         c3.465,2.31,7.404,4.659,11.709,6.795c4.321,2.101,8.583,3.781,12.523,5.109c1.986,0.617,3.864,1.232,5.662,1.666         c0.896,0.227,1.753,0.477,2.591,0.661c0.838,0.179,1.643,0.352,2.412,0.516c1.531,0.357,2.941,0.548,4.171,0.759         c0.616,0.098,1.188,0.201,1.717,0.273c0.528,0.06,1.012,0.116,1.453,0.166c0.844,0.09,1.514,0.162,2.01,0.215         C426.307,106.505,426.549,106.521,426.55,106.507z"
   id="path1359" />
						</g>
					</g>
				</g>
				<g
   id="g1373">
					<g
   id="g1371">
						<g
   id="g1369">
							<path
   style="fill:#455A64;"
   d="M414.944,213.464c0.007,0.001,0.027-0.093,0.058-0.278c0.032-0.207,0.074-0.478,0.127-0.821         c0.106-0.723,0.273-1.789,0.406-3.171c0.305-2.759,0.594-6.775,0.582-11.743c0.006-4.967-0.317-10.879-0.944-17.412         c-0.62-6.535-1.508-13.692-2.379-21.21c-1.789-15.026-3.408-28.626-4.584-38.501c-0.604-4.904-1.095-8.882-1.437-11.661         c-0.176-1.355-0.314-2.417-0.412-3.168c-0.049-0.344-0.088-0.616-0.118-0.823c-0.029-0.185-0.047-0.279-0.054-0.279         c-0.007,0.001-0.003,0.097,0.012,0.284c0.019,0.208,0.044,0.482,0.076,0.828c0.079,0.753,0.191,1.818,0.333,3.177         c0.311,2.784,0.756,6.767,1.304,11.677c1.144,9.878,2.72,23.484,4.461,38.516c0.871,7.519,1.772,14.674,2.411,21.198         c0.648,6.523,1.001,12.42,1.033,17.376c0.05,4.957-0.193,8.965-0.448,11.725c-0.108,1.382-0.249,2.45-0.327,3.176         c-0.036,0.345-0.064,0.618-0.086,0.827C414.941,213.367,414.936,213.463,414.944,213.464z"
   id="path1367" />
						</g>
					</g>
				</g>
				<g
   id="g1381">
					<g
   id="g1379">
						<g
   id="g1377">
							<path
   style="fill:#455A64;"
   d="M404.224,168.189c0.015,0.001,0.038-0.235,0.07-0.684c0.03-0.488,0.069-1.143,0.119-1.966         c0.098-1.708,0.204-4.181,0.305-7.238c0.205-6.113,0.335-14.566,0.182-23.9c-0.157-9.337-0.568-17.781-0.976-23.884         c-0.203-3.052-0.391-5.52-0.546-7.223c-0.077-0.821-0.139-1.474-0.184-1.961c-0.047-0.448-0.078-0.682-0.093-0.681         c-0.015,0.001-0.011,0.238,0.008,0.688c0.026,0.488,0.061,1.143,0.105,1.966c0.1,1.749,0.24,4.208,0.412,7.229         c0.331,6.105,0.695,14.544,0.852,23.873c0.153,9.326,0.07,17.772-0.059,23.885c-0.072,3.025-0.13,5.488-0.171,7.239         c-0.017,0.825-0.03,1.481-0.04,1.969C404.205,167.951,404.21,168.188,404.224,168.189z"
   id="path1375" />
						</g>
					</g>
				</g>
			</g>
		</g>
	</g>
</g>
<g
   id="Speech_Bubble">
	<g
   id="g1400">
		<g
   id="g1398">
			<g
   id="g1396">
				<path
   style="fill:#FAFAFA;"
   d="M452.299,150.743l8.363-14.941c-3.736-6.067-5.906-13.216-5.928-20.878      c-0.063-22.036,17.626-39.95,39.51-40.013c21.884-0.063,39.676,17.749,39.74,39.785c0.063,22.035-17.626,39.95-39.51,40.013      c-9.138,0.026-17.556-3.072-24.274-8.286l0.014,0.018L452.299,150.743z"
   id="path1390" />
				<g
   id="g1394">
					<path
   style="fill:#263238;"
   d="M452.299,150.743c0.899-0.222,6.517-1.614,17.884-4.428l-0.073,0.204l-0.014-0.018       c-0.044-0.057-0.033-0.138,0.023-0.182c0.048-0.037,0.113-0.034,0.159,0.001c2.263,1.731,4.969,3.434,8.145,4.848       c3.18,1.39,6.819,2.515,10.832,3.023c2.003,0.241,4.095,0.393,6.243,0.267c1.073-0.072,2.166-0.093,3.266-0.208       c1.093-0.173,2.201-0.348,3.325-0.526c4.451-0.923,8.991-2.665,13.21-5.351c4.217-2.676,8.106-6.291,11.209-10.707       c3.092-4.41,5.44-9.614,6.49-15.26c1.062-5.633,0.937-11.66-0.558-17.488c-1.503-5.81-4.291-11.48-8.451-16.151l-1.602-1.765       c-0.531-0.589-1.156-1.081-1.728-1.625c-0.599-0.514-1.133-1.102-1.78-1.551l-1.883-1.41c-0.609-0.495-1.285-0.886-1.952-1.288       l-1.99-1.211c-0.697-0.337-1.393-0.673-2.087-1.009c-0.698-0.326-1.373-0.7-2.106-0.932       c-5.704-2.257-11.789-3.104-17.604-2.656c-5.817,0.438-11.371,2.157-16.125,4.886c-4.772,2.703-8.786,6.299-11.879,10.304       c-3.102,4.007-5.28,8.416-6.628,12.801c-1.357,4.402-1.695,8.773-1.687,12.818c0.233,8.147,2.927,14.856,5.83,19.606       c0.025,0.039,0.024,0.089,0.003,0.127C455.369,145.35,452.738,149.971,452.299,150.743c0.428-0.777,2.991-5.437,8.254-15.002       l0.003,0.126c-2.955-4.757-5.708-11.506-5.977-19.725c-0.026-4.08,0.3-8.495,1.657-12.946       c1.347-4.435,3.537-8.898,6.664-12.957c3.117-4.057,7.171-7.703,11.997-10.447c4.807-2.77,10.429-4.519,16.32-4.969       c5.887-0.46,12.054,0.392,17.834,2.677c0.743,0.235,1.428,0.612,2.135,0.943c0.703,0.34,1.408,0.68,2.114,1.022       c0.671,0.407,1.343,0.816,2.017,1.225c0.675,0.408,1.361,0.804,1.978,1.305l1.908,1.428c0.655,0.456,1.198,1.05,1.804,1.571       c0.579,0.551,1.212,1.05,1.751,1.646l1.623,1.788c4.213,4.733,7.039,10.479,8.557,16.365       c1.511,5.906,1.632,12.008,0.551,17.711c-1.07,5.717-3.454,10.983-6.591,15.441c-3.147,4.464-7.089,8.113-11.361,10.81       c-4.274,2.707-8.869,4.456-13.369,5.375c-1.136,0.176-2.256,0.35-3.361,0.521c-1.111,0.112-2.216,0.131-3.299,0.199       c-2.169,0.12-4.28-0.042-6.301-0.293c-4.048-0.529-7.715-1.68-10.913-3.098c-3.194-1.442-5.91-3.174-8.175-4.931l0.182-0.181       l0.013,0.018c0.044,0.056,0.034,0.137-0.023,0.181c-0.015,0.011-0.033,0.02-0.05,0.024       C458.839,149.221,453.2,150.533,452.299,150.743z"
   id="path1392" />
				</g>
			</g>
		</g>
	</g>
	<g
   id="g1414">
		<g
   id="g1406">
			<g
   id="g1404">
				<path
   style="fill:#263238;"
   d="M511.043,103.979c0.025,0.028-0.412,0.484-1.226,1.285c-0.889,0.857-2.062,1.987-3.48,3.355      c-2.955,2.815-7.063,6.676-11.623,10.915l-0.691,0.642l-0.177,0.165l-0.183-0.157c-1.967-1.688-3.846-3.3-5.582-4.789      l0.335-0.007c-3.048,2.761-5.665,5.133-7.602,6.888c-0.895,0.787-1.632,1.434-2.208,1.941c-0.519,0.444-0.809,0.674-0.828,0.652      c-0.019-0.021,0.232-0.292,0.717-0.775c0.551-0.535,1.255-1.218,2.111-2.049c1.903-1.793,4.474-4.214,7.469-7.034l0.163-0.153      l0.173,0.146c1.743,1.48,3.63,3.082,5.606,4.76l-0.361,0.008l0.69-0.642c4.56-4.239,8.709-8.055,11.731-10.797      c1.466-1.315,2.679-2.403,3.598-3.227C510.531,104.354,511.018,103.951,511.043,103.979z"
   id="path1402" />
			</g>
		</g>
		<g
   id="g1412">
			<g
   id="g1410">
				<path
   style="fill:#263238;"
   d="M511.56,113.202c-0.073,0.003-0.183-1.018-0.303-2.684c-0.12-1.666-0.251-3.978-0.365-6.555      l0.284,0.262c-0.147,0.007-0.304,0.014-0.463,0.02c-2.666,0.116-5.08,0.19-6.828,0.216c-1.749,0.026-2.832,0.005-2.835-0.071      c-0.003-0.076,1.074-0.191,2.818-0.316c1.744-0.125,4.156-0.261,6.821-0.376c0.159-0.007,0.316-0.014,0.463-0.02l0.272-0.012      l0.011,0.274c0.107,2.578,0.174,4.892,0.197,6.562C511.655,112.172,511.633,113.199,511.56,113.202z"
   id="path1408" />
			</g>
		</g>
	</g>
</g>
</svg>
